<svg width="343" height="210" viewBox="0 0 343 210" fill="none" xmlns="http://www.w3.org/2000/svg">
<g clip-path="url(#clip0_6210_5605)">
<rect width="343" height="210" rx="12" fill="url(#paint0_linear_6210_5605)"/>
<path d="M40.0166 289.6C49.4598 289.754 58.8394 288.025 67.6087 284.511C76.378 280.998 84.3616 275.771 91.0943 269.135C97.827 262.5 103.174 254.588 106.824 245.861C110.474 237.134 112.354 227.767 112.354 218.305C112.354 208.843 110.474 199.475 106.824 190.748C103.174 182.021 97.827 174.109 91.0943 167.474C84.3616 160.838 76.378 155.611 67.6087 152.098C58.8394 148.584 49.4598 146.855 40.0166 147.01V289.6Z" fill="#9EEC60"/>
<path d="M202.99 34.5334C222.163 26.4631 231.174 4.35007 223.119 -14.8576C215.064 -34.0653 192.992 -43.094 173.82 -35.0238C154.648 -26.9536 145.636 -4.84047 153.691 14.3672C161.746 33.5749 183.818 42.6036 202.99 34.5334Z" fill="url(#paint1_linear_6210_5605)"/>
<path d="M209.611 9.48819C209.611 8.98187 209.41 8.49628 209.053 8.13826C208.695 7.78024 208.211 7.5791 207.705 7.5791C207.2 7.5791 206.715 7.78024 206.358 8.13826C206.001 8.49628 205.8 8.98187 205.8 9.48819C205.8 9.99451 206.001 10.4801 206.358 10.8381C206.715 11.1961 207.2 11.3973 207.705 11.3973C208.211 11.3973 208.695 11.1961 209.053 10.8381C209.41 10.4801 209.611 9.99451 209.611 9.48819Z" fill="white"/>
<path d="M221.006 9.48819C221.006 8.98187 220.806 8.49628 220.448 8.13826C220.091 7.78024 219.606 7.5791 219.101 7.5791C218.595 7.5791 218.111 7.78024 217.753 8.13826C217.396 8.49628 217.195 8.98187 217.195 9.48819C217.195 9.99451 217.396 10.4801 217.753 10.8381C218.111 11.1961 218.595 11.3973 219.101 11.3973C219.606 11.3973 220.091 11.1961 220.448 10.8381C220.806 10.4801 221.006 9.99451 221.006 9.48819Z" fill="white"/>
<path d="M232.421 9.48819C232.421 8.98187 232.22 8.49628 231.862 8.13826C231.505 7.78024 231.02 7.5791 230.515 7.5791C230.01 7.5791 229.525 7.78024 229.168 8.13826C228.81 8.49628 228.609 8.98187 228.609 9.48819C228.609 9.99451 228.81 10.4801 229.168 10.8381C229.525 11.1961 230.01 11.3973 230.515 11.3973C231.02 11.3973 231.505 11.1961 231.862 10.8381C232.22 10.4801 232.421 9.99451 232.421 9.48819Z" fill="white"/>
<path d="M243.835 9.48819C243.835 8.98187 243.634 8.49628 243.276 8.13826C242.919 7.78024 242.434 7.5791 241.929 7.5791C241.424 7.5791 240.939 7.78024 240.581 8.13826C240.224 8.49628 240.023 8.98187 240.023 9.48819C240.023 9.99451 240.224 10.4801 240.581 10.8381C240.939 11.1961 241.424 11.3973 241.929 11.3973C242.434 11.3973 242.919 11.1961 243.276 10.8381C243.634 10.4801 243.835 9.99451 243.835 9.48819Z" fill="white"/>
<path d="M255.211 9.48819C255.211 8.98187 255.011 8.49628 254.653 8.13826C254.296 7.78024 253.811 7.5791 253.306 7.5791C252.801 7.5791 252.316 7.78024 251.959 8.13826C251.601 8.49628 251.4 8.98187 251.4 9.48819C251.4 9.99451 251.601 10.4801 251.959 10.8381C252.316 11.1961 252.801 11.3973 253.306 11.3973C253.811 11.3973 254.296 11.1961 254.653 10.8381C255.011 10.4801 255.211 9.99451 255.211 9.48819Z" fill="white"/>
<path d="M266.626 9.4882C266.626 9.11062 266.514 8.74151 266.304 8.42756C266.095 8.11361 265.797 7.86892 265.449 7.72443C265.101 7.57993 264.718 7.54212 264.348 7.61578C263.979 7.68945 263.639 7.87128 263.373 8.13827C263.106 8.40526 262.925 8.74543 262.851 9.11575C262.778 9.48608 262.815 9.86994 262.959 10.2188C263.104 10.5676 263.348 10.8658 263.661 11.0755C263.975 11.2853 264.343 11.3973 264.72 11.3973C265.225 11.3973 265.71 11.1962 266.067 10.8381C266.425 10.4801 266.626 9.99452 266.626 9.4882Z" fill="white"/>
<path d="M278.02 9.4882C278.02 9.11062 277.908 8.74151 277.699 8.42756C277.49 8.11361 277.192 7.86892 276.844 7.72443C276.496 7.57993 276.112 7.54212 275.743 7.61578C275.373 7.68945 275.034 7.87128 274.767 8.13827C274.501 8.40526 274.319 8.74543 274.246 9.11575C274.172 9.48608 274.21 9.86994 274.354 10.2188C274.498 10.5676 274.743 10.8658 275.056 11.0755C275.369 11.2853 275.738 11.3973 276.115 11.3973C276.62 11.3973 277.105 11.1962 277.462 10.8381C277.819 10.4801 278.02 9.99452 278.02 9.4882Z" fill="white"/>
<path d="M289.416 9.48819C289.416 8.98187 289.215 8.49628 288.857 8.13826C288.5 7.78024 288.015 7.5791 287.51 7.5791C287.005 7.5791 286.52 7.78024 286.163 8.13826C285.805 8.49628 285.604 8.98187 285.604 9.48819C285.604 9.99451 285.805 10.4801 286.163 10.8381C286.52 11.1961 287.005 11.3973 287.51 11.3973C288.015 11.3973 288.5 11.1961 288.857 10.8381C289.215 10.4801 289.416 9.99451 289.416 9.48819Z" fill="white"/>
<path d="M209.611 20.9237C209.611 20.5462 209.499 20.177 209.29 19.8631C209.08 19.5491 208.783 19.3045 208.435 19.16C208.086 19.0155 207.703 18.9777 207.334 19.0513C206.964 19.125 206.624 19.3068 206.358 19.5738C206.091 19.8408 205.91 20.181 205.836 20.5513C205.763 20.9216 205.801 21.3055 205.945 21.6543C206.089 22.0032 206.333 22.3013 206.647 22.5111C206.96 22.7209 207.328 22.8328 207.705 22.8328C208.211 22.8328 208.695 22.6317 209.053 22.2737C209.41 21.9156 209.611 21.4301 209.611 20.9237Z" fill="white"/>
<path d="M221.006 20.9237C221.006 20.5462 220.895 20.177 220.685 19.8631C220.476 19.5491 220.178 19.3045 219.83 19.16C219.482 19.0155 219.099 18.9777 218.729 19.0513C218.36 19.125 218.02 19.3068 217.753 19.5738C217.487 19.8408 217.305 20.181 217.232 20.5513C217.158 20.9216 217.196 21.3055 217.34 21.6543C217.485 22.0032 217.729 22.3013 218.042 22.5111C218.356 22.7209 218.724 22.8328 219.101 22.8328C219.606 22.8328 220.091 22.6317 220.448 22.2737C220.806 21.9156 221.006 21.4301 221.006 20.9237Z" fill="white"/>
<path d="M232.42 20.9237C232.42 20.5462 232.309 20.177 232.099 19.8631C231.89 19.5491 231.592 19.3045 231.244 19.16C230.896 19.0155 230.513 18.9777 230.143 19.0513C229.774 19.125 229.434 19.3068 229.167 19.5738C228.901 19.8408 228.719 20.181 228.646 20.5513C228.572 20.9216 228.61 21.3055 228.754 21.6543C228.899 22.0032 229.143 22.3013 229.456 22.5111C229.77 22.7209 230.138 22.8328 230.515 22.8328C231.02 22.8328 231.505 22.6317 231.862 22.2737C232.22 21.9156 232.42 21.4301 232.42 20.9237Z" fill="white"/>
<path d="M243.835 20.9237C243.835 20.4174 243.634 19.9318 243.276 19.5738C242.919 19.2158 242.434 19.0146 241.929 19.0146C241.424 19.0146 240.939 19.2158 240.581 19.5738C240.224 19.9318 240.023 20.4174 240.023 20.9237C240.023 21.4301 240.224 21.9156 240.581 22.2737C240.939 22.6317 241.424 22.8328 241.929 22.8328C242.434 22.8328 242.919 22.6317 243.276 22.2737C243.634 21.9156 243.835 21.4301 243.835 20.9237Z" fill="white"/>
<path d="M255.211 20.9237C255.211 20.5462 255.1 20.177 254.89 19.8631C254.681 19.5491 254.383 19.3045 254.035 19.16C253.687 19.0155 253.304 18.9777 252.934 19.0513C252.565 19.125 252.225 19.3068 251.959 19.5738C251.692 19.8408 251.511 20.181 251.437 20.5513C251.363 20.9216 251.401 21.3055 251.545 21.6543C251.69 22.0032 251.934 22.3013 252.247 22.5111C252.561 22.7209 252.929 22.8328 253.306 22.8328C253.811 22.8328 254.296 22.6317 254.653 22.2737C255.011 21.9156 255.211 21.4301 255.211 20.9237Z" fill="white"/>
<path d="M266.626 20.9237C266.626 20.5462 266.514 20.177 266.304 19.8631C266.095 19.5491 265.797 19.3045 265.449 19.16C265.101 19.0155 264.718 18.9777 264.348 19.0513C263.979 19.125 263.639 19.3068 263.373 19.5738C263.106 19.8408 262.925 20.181 262.851 20.5513C262.778 20.9216 262.815 21.3055 262.959 21.6543C263.104 22.0032 263.348 22.3013 263.661 22.5111C263.975 22.7209 264.343 22.8328 264.72 22.8328C265.225 22.8328 265.71 22.6317 266.067 22.2737C266.425 21.9156 266.626 21.4301 266.626 20.9237Z" fill="white"/>
<path d="M278.02 20.9237C278.02 20.5462 277.908 20.177 277.699 19.8631C277.49 19.5491 277.192 19.3045 276.844 19.16C276.496 19.0155 276.112 18.9777 275.743 19.0513C275.373 19.125 275.034 19.3068 274.767 19.5738C274.501 19.8408 274.319 20.181 274.246 20.5513C274.172 20.9216 274.21 21.3055 274.354 21.6543C274.498 22.0032 274.743 22.3013 275.056 22.5111C275.369 22.7209 275.738 22.8328 276.115 22.8328C276.62 22.8328 277.105 22.6317 277.462 22.2737C277.819 21.9156 278.02 21.4301 278.02 20.9237Z" fill="white"/>
<path d="M289.416 20.9237C289.416 20.5462 289.304 20.177 289.094 19.8631C288.885 19.5491 288.587 19.3045 288.239 19.16C287.891 19.0155 287.508 18.9777 287.138 19.0513C286.769 19.125 286.429 19.3068 286.163 19.5738C285.896 19.8408 285.715 20.181 285.641 20.5513C285.568 20.9216 285.605 21.3055 285.75 21.6543C285.894 22.0032 286.138 22.3013 286.451 22.5111C286.765 22.7209 287.133 22.8328 287.51 22.8328C288.015 22.8328 288.5 22.6317 288.857 22.2737C289.215 21.9156 289.416 21.4301 289.416 20.9237Z" fill="white"/>
<path d="M209.611 32.3781C209.611 32.0005 209.499 31.6314 209.29 31.3174C209.08 31.0035 208.783 30.7588 208.435 30.6143C208.086 30.4698 207.703 30.432 207.334 30.5057C206.964 30.5793 206.624 30.7612 206.358 31.0281C206.091 31.2951 205.91 31.6353 205.836 32.0056C205.763 32.376 205.801 32.7598 205.945 33.1087C206.089 33.4575 206.333 33.7557 206.647 33.9654C206.96 34.1752 207.328 34.2872 207.705 34.2872C208.211 34.2872 208.695 34.086 209.053 33.728C209.41 33.37 209.611 32.8844 209.611 32.3781Z" fill="white"/>
<path d="M221.006 32.3781C221.006 32.0005 220.895 31.6314 220.685 31.3174C220.476 31.0035 220.178 30.7588 219.83 30.6143C219.482 30.4698 219.099 30.432 218.729 30.5057C218.36 30.5793 218.02 30.7612 217.753 31.0281C217.487 31.2951 217.305 31.6353 217.232 32.0056C217.158 32.376 217.196 32.7598 217.34 33.1087C217.485 33.4575 217.729 33.7557 218.042 33.9654C218.356 34.1752 218.724 34.2872 219.101 34.2872C219.606 34.2872 220.091 34.086 220.448 33.728C220.806 33.37 221.006 32.8844 221.006 32.3781Z" fill="white"/>
<path d="M232.42 32.3781C232.42 32.0005 232.309 31.6314 232.099 31.3174C231.89 31.0035 231.592 30.7588 231.244 30.6143C230.896 30.4698 230.513 30.432 230.143 30.5057C229.774 30.5793 229.434 30.7612 229.167 31.0281C228.901 31.2951 228.719 31.6353 228.646 32.0056C228.572 32.376 228.61 32.7598 228.754 33.1087C228.899 33.4575 229.143 33.7557 229.456 33.9654C229.77 34.1752 230.138 34.2872 230.515 34.2872C231.02 34.2872 231.505 34.086 231.862 33.728C232.22 33.37 232.42 32.8844 232.42 32.3781Z" fill="white"/>
<path d="M243.835 32.3781C243.835 31.8718 243.634 31.3862 243.276 31.0282C242.919 30.6701 242.434 30.469 241.929 30.469C241.552 30.469 241.184 30.581 240.87 30.7907C240.557 31.0005 240.313 31.2987 240.169 31.6475C240.024 31.9964 239.987 32.3802 240.06 32.7505C240.134 33.1209 240.315 33.461 240.582 33.728C240.848 33.995 241.188 34.1768 241.557 34.2505C241.927 34.3242 242.31 34.2864 242.658 34.1419C243.006 33.9974 243.304 33.7527 243.513 33.4387C243.723 33.1248 243.835 32.7557 243.835 32.3781Z" fill="white"/>
<path d="M255.211 32.3781C255.211 32.0005 255.1 31.6314 254.89 31.3174C254.681 31.0035 254.383 30.7588 254.035 30.6143C253.687 30.4698 253.304 30.432 252.934 30.5057C252.565 30.5793 252.225 30.7612 251.959 31.0281C251.692 31.2951 251.511 31.6353 251.437 32.0056C251.363 32.376 251.401 32.7598 251.545 33.1087C251.69 33.4575 251.934 33.7557 252.247 33.9654C252.561 34.1752 252.929 34.2872 253.306 34.2872C253.811 34.2872 254.296 34.086 254.653 33.728C255.011 33.37 255.211 32.8844 255.211 32.3781Z" fill="white"/>
<path d="M266.626 32.3781C266.626 32.0005 266.514 31.6314 266.304 31.3174C266.095 31.0035 265.797 30.7588 265.449 30.6143C265.101 30.4698 264.718 30.432 264.348 30.5057C263.979 30.5793 263.639 30.7612 263.373 31.0281C263.106 31.2951 262.925 31.6353 262.851 32.0056C262.778 32.376 262.815 32.7598 262.959 33.1087C263.104 33.4575 263.348 33.7557 263.661 33.9654C263.975 34.1752 264.343 34.2872 264.72 34.2872C265.225 34.2872 265.71 34.086 266.067 33.728C266.425 33.37 266.626 32.8844 266.626 32.3781Z" fill="white"/>
<path d="M278.02 32.3781C278.02 31.8718 277.819 31.3862 277.462 31.0282C277.105 30.6701 276.62 30.469 276.115 30.469C275.609 30.469 275.124 30.6701 274.767 31.0282C274.41 31.3862 274.209 31.8718 274.209 32.3781C274.209 32.8844 274.41 33.37 274.767 33.728C275.124 34.086 275.609 34.2872 276.115 34.2872C276.62 34.2872 277.105 34.086 277.462 33.728C277.819 33.37 278.02 32.8844 278.02 32.3781Z" fill="white"/>
<path d="M289.416 32.3781C289.416 32.0005 289.304 31.6314 289.094 31.3174C288.885 31.0035 288.587 30.7588 288.239 30.6143C287.891 30.4698 287.508 30.432 287.138 30.5057C286.769 30.5793 286.429 30.7612 286.163 31.0281C285.896 31.2951 285.715 31.6353 285.641 32.0056C285.568 32.376 285.605 32.7598 285.75 33.1087C285.894 33.4575 286.138 33.7557 286.451 33.9654C286.765 34.1752 287.133 34.2872 287.51 34.2872C288.015 34.2872 288.5 34.086 288.857 33.728C289.215 33.37 289.416 32.8844 289.416 32.3781Z" fill="white"/>
<path d="M209.611 43.8136C209.611 43.3073 209.41 42.8217 209.053 42.4637C208.695 42.1057 208.211 41.9045 207.705 41.9045C207.2 41.9045 206.715 42.1057 206.358 42.4637C206.001 42.8217 205.8 43.3073 205.8 43.8136C205.8 44.32 206.001 44.8055 206.358 45.1636C206.715 45.5216 207.2 45.7227 207.705 45.7227C208.211 45.7227 208.695 45.5216 209.053 45.1636C209.41 44.8055 209.611 44.32 209.611 43.8136Z" fill="white"/>
<path d="M221.006 43.8136C221.006 43.3073 220.806 42.8217 220.448 42.4637C220.091 42.1057 219.606 41.9045 219.101 41.9045C218.595 41.9045 218.111 42.1057 217.753 42.4637C217.396 42.8217 217.195 43.3073 217.195 43.8136C217.195 44.32 217.396 44.8055 217.753 45.1636C218.111 45.5216 218.595 45.7227 219.101 45.7227C219.606 45.7227 220.091 45.5216 220.448 45.1636C220.806 44.8055 221.006 44.32 221.006 43.8136Z" fill="white"/>
<path d="M232.421 43.8136C232.421 43.3073 232.22 42.8217 231.862 42.4637C231.505 42.1057 231.02 41.9045 230.515 41.9045C230.01 41.9045 229.525 42.1057 229.168 42.4637C228.81 42.8217 228.609 43.3073 228.609 43.8136C228.609 44.32 228.81 44.8055 229.168 45.1636C229.525 45.5216 230.01 45.7227 230.515 45.7227C231.02 45.7227 231.505 45.5216 231.862 45.1636C232.22 44.8055 232.421 44.32 232.421 43.8136Z" fill="white"/>
<path d="M243.835 43.8136C243.835 43.3073 243.634 42.8217 243.276 42.4637C242.919 42.1057 242.434 41.9045 241.929 41.9045C241.424 41.9045 240.939 42.1057 240.581 42.4637C240.224 42.8217 240.023 43.3073 240.023 43.8136C240.023 44.32 240.224 44.8055 240.581 45.1636C240.939 45.5216 241.424 45.7227 241.929 45.7227C242.434 45.7227 242.919 45.5216 243.276 45.1636C243.634 44.8055 243.835 44.32 243.835 43.8136Z" fill="white"/>
<path d="M255.211 43.8136C255.211 43.3073 255.011 42.8217 254.653 42.4637C254.296 42.1057 253.811 41.9045 253.306 41.9045C252.801 41.9045 252.316 42.1057 251.959 42.4637C251.601 42.8217 251.4 43.3073 251.4 43.8136C251.4 44.32 251.601 44.8055 251.959 45.1636C252.316 45.5216 252.801 45.7227 253.306 45.7227C253.811 45.7227 254.296 45.5216 254.653 45.1636C255.011 44.8055 255.211 44.32 255.211 43.8136Z" fill="white"/>
<path d="M266.626 43.8136C266.626 43.436 266.514 43.0669 266.304 42.753C266.095 42.4391 265.797 42.1944 265.449 42.0499C265.101 41.9054 264.718 41.8676 264.348 41.9412C263.979 42.0149 263.639 42.1967 263.373 42.4637C263.106 42.7307 262.925 43.0709 262.851 43.4412C262.778 43.8115 262.815 44.1954 262.959 44.5442C263.104 44.8931 263.348 45.1912 263.661 45.401C263.975 45.6108 264.343 45.7227 264.72 45.7227C265.225 45.7227 265.71 45.5216 266.067 45.1636C266.425 44.8055 266.626 44.3199 266.626 43.8136Z" fill="white"/>
<path d="M278.02 43.8136C278.02 43.436 277.908 43.0669 277.699 42.753C277.49 42.4391 277.192 42.1944 276.844 42.0499C276.496 41.9054 276.112 41.8676 275.743 41.9412C275.373 42.0149 275.034 42.1967 274.767 42.4637C274.501 42.7307 274.319 43.0709 274.246 43.4412C274.172 43.8115 274.21 44.1954 274.354 44.5442C274.498 44.8931 274.743 45.1912 275.056 45.401C275.369 45.6108 275.738 45.7227 276.115 45.7227C276.62 45.7227 277.105 45.5216 277.462 45.1636C277.819 44.8055 278.02 44.3199 278.02 43.8136Z" fill="white"/>
<path d="M285.624 43.8136C285.624 44.32 285.825 44.8055 286.182 45.1636C286.539 45.5216 287.024 45.7227 287.53 45.7227C288.035 45.7227 288.52 45.5216 288.877 45.1636C289.234 44.8055 289.435 44.32 289.435 43.8136C289.435 43.3073 289.234 42.8217 288.877 42.4637C288.52 42.1057 288.035 41.9045 287.53 41.9045C287.024 41.9045 286.539 42.1057 286.182 42.4637C285.825 42.8217 285.624 43.3073 285.624 43.8136Z" fill="white"/>
<path opacity="0.5" d="M57.1439 166.323C73.7212 159.345 81.5134 140.225 74.5484 123.617C67.5833 107.009 48.4985 99.2022 31.9212 106.18C15.3439 113.158 7.55157 132.278 14.5166 148.887C21.4817 165.495 40.5666 173.301 57.1439 166.323Z" fill="url(#paint2_linear_6210_5605)"/>
<path d="M0.0838922 186.765C-0.421493 186.981 -0.820852 187.388 -1.02633 187.898C-1.23182 188.408 -1.22659 188.979 -1.0118 189.486C-0.797015 189.992 -0.390259 190.392 0.11898 190.598C0.62822 190.804 1.19823 190.799 1.70361 190.584C1.95385 190.477 2.1807 190.322 2.37119 190.128C2.56169 189.933 2.7121 189.703 2.81385 189.451C2.91559 189.198 2.96667 188.928 2.96418 188.655C2.96168 188.383 2.90566 188.114 2.79931 187.863C2.69295 187.612 2.53836 187.385 2.34434 187.194C2.15032 187.003 1.92067 186.853 1.66852 186.751C1.41637 186.649 1.14666 186.598 0.874765 186.6C0.602873 186.603 0.334133 186.659 0.0838922 186.765Z" fill="white"/>
<path d="M9.82128 209.464C9.44775 209.627 9.13065 209.896 8.91011 210.239C8.68957 210.582 8.5755 210.983 8.58232 211.391C8.58914 211.798 8.71656 212.195 8.94844 212.53C9.18033 212.866 9.50627 213.124 9.88502 213.274C10.2638 213.424 10.6783 213.457 11.0762 213.371C11.4741 213.285 11.8374 213.082 12.1203 212.788C12.4031 212.495 12.5928 212.124 12.6652 211.723C12.7376 211.321 12.6896 210.908 12.5272 210.534C12.4215 210.284 12.2672 210.058 12.0733 209.868C11.8795 209.679 11.6499 209.53 11.398 209.431C11.1461 209.331 10.8769 209.283 10.6062 209.289C10.3355 209.294 10.0687 209.354 9.82128 209.464Z" fill="white"/>
<path d="M4.9628 198.105C4.71256 198.212 4.48571 198.367 4.29522 198.561C4.10473 198.756 3.95431 198.986 3.85257 199.238C3.75082 199.491 3.69974 199.761 3.70224 200.034C3.70473 200.306 3.76075 200.575 3.86711 200.826C3.97346 201.077 4.12806 201.304 4.32208 201.495C4.5161 201.686 4.74574 201.836 4.99789 201.938C5.25004 202.04 5.51976 202.091 5.79165 202.089C6.06354 202.086 6.33228 202.03 6.58252 201.924C7.08791 201.708 7.48727 201.301 7.69275 200.791C7.89823 200.281 7.89301 199.709 7.67822 199.203C7.46343 198.697 7.05667 198.297 6.54743 198.091C6.03819 197.885 5.46819 197.89 4.9628 198.105Z" fill="white"/>
<path d="M18.7011 205.646C18.4508 205.753 18.224 205.908 18.0335 206.102C17.843 206.297 17.6926 206.527 17.5909 206.779C17.4891 207.032 17.438 207.302 17.4405 207.575C17.443 207.847 17.499 208.116 17.6054 208.367C17.7117 208.618 17.8663 208.845 18.0604 209.036C18.2544 209.227 18.484 209.377 18.7362 209.479C18.9883 209.581 19.258 209.632 19.5299 209.63C19.8018 209.627 20.0706 209.571 20.3208 209.465C20.8262 209.249 21.2256 208.842 21.431 208.332C21.6365 207.822 21.6313 207.251 21.4165 206.744C21.2017 206.238 20.795 205.838 20.2857 205.632C19.7765 205.426 19.2065 205.431 18.7011 205.646Z" fill="white"/>
<path d="M8.96406 182.947C8.71544 183.051 8.4899 183.204 8.30048 183.396C8.11106 183.588 7.96154 183.816 7.86053 184.066C7.75953 184.316 7.70906 184.584 7.71204 184.854C7.71502 185.124 7.77139 185.391 7.8779 185.639C7.98425 185.89 8.13885 186.117 8.33287 186.308C8.52689 186.499 8.75653 186.649 9.00868 186.751C9.26083 186.853 9.53055 186.904 9.80244 186.902C10.0743 186.899 10.3431 186.843 10.5933 186.737C10.8436 186.63 11.0704 186.475 11.2609 186.281C11.4514 186.087 11.6018 185.856 11.7035 185.604C11.8053 185.351 11.8564 185.081 11.8539 184.809C11.8514 184.536 11.7954 184.267 11.689 184.016C11.5835 183.764 11.4284 183.536 11.2332 183.345C11.0379 183.154 10.8064 183.004 10.5522 182.904C10.2981 182.805 10.0266 182.757 9.75382 182.764C9.48101 182.772 9.21245 182.834 8.96406 182.947Z" fill="white"/>
<path d="M13.8233 194.287C13.4496 194.448 13.1318 194.716 12.91 195.057C12.6882 195.399 12.5725 195.799 12.5773 196.206C12.5821 196.614 12.7074 197.011 12.9372 197.347C13.167 197.683 13.4911 197.943 13.8685 198.095C14.2459 198.247 14.6598 198.283 15.0579 198.2C15.4559 198.116 15.8203 197.916 16.105 197.625C16.3896 197.334 16.5819 196.965 16.6574 196.564C16.7329 196.164 16.6883 195.75 16.5292 195.375C16.4253 195.124 16.2724 194.896 16.0793 194.704C15.8862 194.513 15.6569 194.362 15.4048 194.261C15.1527 194.159 14.883 194.11 14.6114 194.114C14.3398 194.119 14.0719 194.177 13.8233 194.287Z" fill="white"/>
<path d="M4.08562 171.588C3.58551 171.806 3.19222 172.214 2.99213 172.723C2.79204 173.231 2.80153 173.798 3.01851 174.299C3.2333 174.806 3.64005 175.206 4.14929 175.412C4.65853 175.617 5.22854 175.612 5.73392 175.397C6.23931 175.182 6.63867 174.774 6.84415 174.264C7.04963 173.754 7.04441 173.183 6.82962 172.677C6.7239 172.422 6.56831 172.191 6.37206 171.998C6.17581 171.805 5.94289 171.653 5.68707 171.552C5.43124 171.45 5.15771 171.401 4.88264 171.408C4.60757 171.414 4.33655 171.475 4.08562 171.588Z" fill="white"/>
<path d="M-0.773571 160.248C-1.27896 160.461 -1.67932 160.866 -1.88659 161.374C-2.09386 161.883 -2.09105 162.453 -1.87879 162.959C-1.66653 163.465 -1.2622 163.867 -0.754744 164.074C-0.247292 164.282 0.321711 164.279 0.827096 164.066C1.07734 163.961 1.30443 163.807 1.4954 163.614C1.68638 163.421 1.83748 163.192 1.94011 162.94C2.04274 162.689 2.09488 162.419 2.09354 162.147C2.09221 161.875 2.03742 161.606 1.93232 161.355C1.82722 161.105 1.67386 160.877 1.481 160.686C1.28813 160.495 1.05954 160.343 0.808276 160.24C0.557011 160.138 0.287987 160.085 0.0165741 160.087C-0.254839 160.088 -0.52333 160.143 -0.773571 160.248Z" fill="white"/>
<path d="M3.22864 145.071C2.72986 145.285 2.33586 145.689 2.13243 146.193C1.929 146.697 1.93261 147.261 2.14247 147.763C2.36046 148.264 2.76647 148.659 3.27279 148.862C3.77911 149.066 4.34507 149.062 4.84836 148.851C5.09765 148.745 5.3234 148.59 5.51242 148.396C5.70144 148.202 5.84996 147.972 5.9493 147.72C6.04863 147.467 6.0968 147.198 6.09099 146.926C6.08519 146.655 6.02552 146.388 5.91547 146.14C5.81176 145.891 5.65936 145.665 5.46726 145.476C5.27515 145.287 5.04721 145.138 4.79686 145.038C4.5465 144.939 4.27879 144.89 4.00947 144.896C3.74015 144.902 3.47466 144.961 3.22864 145.071Z" fill="white"/>
<path d="M8.08757 156.411C7.58746 156.629 7.19417 157.037 6.99409 157.545C6.794 158.053 6.80348 158.62 7.02046 159.122C7.12417 159.371 7.27657 159.597 7.46867 159.786C7.66078 159.975 7.88872 160.124 8.13907 160.223C8.38943 160.323 8.65714 160.371 8.92647 160.366C9.19579 160.36 9.46127 160.301 9.70729 160.191C10.2061 159.976 10.6001 159.573 10.8035 159.069C11.0069 158.565 11.0033 158 10.7935 157.499C10.5755 156.998 10.1695 156.603 9.66314 156.399C9.15682 156.196 8.59087 156.2 8.08757 156.411Z" fill="white"/>
<path d="M12.9657 167.77C12.4603 167.985 12.061 168.393 11.8555 168.903C11.65 169.413 11.6552 169.984 11.87 170.49C12.0848 170.997 12.4916 171.397 13.0008 171.603C13.5101 171.809 14.0801 171.803 14.5855 171.588C14.8357 171.482 15.0625 171.327 15.253 171.132C15.4435 170.938 15.5939 170.708 15.6957 170.455C15.7974 170.203 15.8485 169.932 15.846 169.66C15.8435 169.388 15.7875 169.118 15.6811 168.868C15.5748 168.617 15.4202 168.39 15.2262 168.199C15.0322 168.008 14.8025 167.857 14.5504 167.755C14.2982 167.653 14.0285 167.602 13.7566 167.605C13.4847 167.607 13.216 167.663 12.9657 167.77Z" fill="white"/>
<path d="M-1.65032 133.712C-2.02405 133.872 -2.34186 134.14 -2.56363 134.482C-2.7854 134.824 -2.90117 135.223 -2.89634 135.631C-2.8915 136.038 -2.76627 136.435 -2.53646 136.771C-2.30665 137.107 -1.98256 137.368 -1.60512 137.52C-1.22768 137.671 -0.813809 137.708 -0.415767 137.624C-0.017724 137.54 0.34664 137.34 0.631321 137.049C0.916001 136.758 1.10824 136.389 1.18374 135.989C1.25925 135.589 1.21465 135.175 1.05558 134.8C0.949622 134.55 0.795487 134.324 0.602019 134.134C0.408551 133.944 0.179551 133.794 -0.0718429 133.693C-0.323237 133.592 -0.592076 133.541 -0.862948 133.545C-1.13382 133.548 -1.40139 133.605 -1.65032 133.712Z" fill="white"/>
<path d="M27.5625 201.828C27.189 201.99 26.8719 202.26 26.6513 202.603C26.4308 202.946 26.3167 203.346 26.3235 203.754C26.3304 204.162 26.4578 204.559 26.6896 204.894C26.9215 205.229 27.2475 205.488 27.6262 205.638C28.005 205.787 28.4195 205.821 28.8174 205.735C29.2153 205.648 29.5787 205.446 29.8615 205.152C30.1444 204.859 30.334 204.488 30.4064 204.087C30.4788 203.685 30.4308 203.271 30.2684 202.897C30.0508 202.396 29.6436 202.002 29.1363 201.802C28.6289 201.601 28.0629 201.611 27.5625 201.828Z" fill="white"/>
<path d="M17.8252 179.129C17.4517 179.291 17.1346 179.561 16.914 179.904C16.6935 180.247 16.5794 180.648 16.5862 181.055C16.593 181.463 16.7205 181.86 16.9524 182.195C17.1842 182.53 17.5102 182.789 17.8889 182.939C18.2677 183.089 18.6822 183.122 19.0801 183.036C19.478 182.949 19.8413 182.747 20.1242 182.453C20.4071 182.16 20.5967 181.789 20.6691 181.388C20.7415 180.986 20.6935 180.572 20.5311 180.198C20.4254 179.949 20.2711 179.722 20.0772 179.533C19.8834 179.344 19.6538 179.195 19.4019 179.095C19.15 178.996 18.8808 178.948 18.6101 178.953C18.3394 178.959 18.0726 179.019 17.8252 179.129Z" fill="white"/>
<path d="M22.7032 190.469C22.3295 190.63 22.0116 190.898 21.7899 191.239C21.5681 191.581 21.4523 191.981 21.4572 192.388C21.462 192.796 21.5872 193.192 21.817 193.529C22.0469 193.865 22.3709 194.125 22.7484 194.277C23.1258 194.429 23.5397 194.465 23.9377 194.381C24.3358 194.298 24.7002 194.098 24.9848 193.807C25.2695 193.516 25.4617 193.147 25.5373 192.746C25.6128 192.346 25.5682 191.932 25.4091 191.557C25.3031 191.307 25.149 191.081 24.9555 190.891C24.7621 190.701 24.5331 190.551 24.2817 190.45C24.0303 190.349 23.7614 190.299 23.4906 190.302C23.2197 190.305 22.9521 190.362 22.7032 190.469Z" fill="white"/>
<path d="M16.9678 152.593C16.5941 152.753 16.2763 153.022 16.0545 153.363C15.8328 153.705 15.717 154.104 15.7218 154.512C15.7267 154.919 15.8519 155.316 16.0817 155.652C16.3115 155.989 16.6356 156.249 17.013 156.401C17.3905 156.553 17.8044 156.589 18.2024 156.505C18.6004 156.421 18.9648 156.221 19.2495 155.93C19.5342 155.639 19.7264 155.27 19.8019 154.87C19.8774 154.47 19.8328 154.056 19.6737 153.681C19.4557 153.18 19.0497 152.785 18.5434 152.581C18.0371 152.378 17.4711 152.382 16.9678 152.593Z" fill="white"/>
<path d="M12.1079 141.253C11.8577 141.355 11.6304 141.506 11.4395 141.698C11.2486 141.889 11.0981 142.117 10.9968 142.368C10.8956 142.619 10.8456 142.888 10.8499 143.159C10.8541 143.43 10.9126 143.697 11.0218 143.944C11.1281 144.195 11.2827 144.422 11.4767 144.613C11.6708 144.804 11.9004 144.955 12.1526 145.057C12.4047 145.159 12.6744 145.21 12.9463 145.207C13.2182 145.205 13.487 145.149 13.7372 145.042C13.9874 144.936 14.2143 144.781 14.4048 144.586C14.5953 144.392 14.7457 144.162 14.8474 143.909C14.9492 143.657 15.0002 143.386 14.9978 143.114C14.9953 142.842 14.9392 142.572 14.8329 142.322C14.7295 142.068 14.5757 141.838 14.3808 141.645C14.1859 141.453 13.954 141.302 13.6992 141.202C13.4444 141.102 13.1719 141.055 12.8984 141.064C12.6248 141.072 12.3559 141.137 12.1079 141.253Z" fill="white"/>
<path d="M21.8451 163.952C21.4693 164.111 21.1492 164.379 20.9257 164.721C20.7022 165.064 20.5854 165.465 20.59 165.874C20.5946 166.283 20.7205 166.681 20.9517 167.018C21.1828 167.355 21.5088 167.616 21.8882 167.767C22.2676 167.917 22.6832 167.952 23.0822 167.866C23.4812 167.779 23.8456 167.576 24.129 167.282C24.4124 166.987 24.602 166.615 24.6738 166.213C24.7456 165.81 24.6962 165.395 24.532 165.021C24.4283 164.772 24.2759 164.546 24.0838 164.357C23.8917 164.168 23.6637 164.019 23.4134 163.919C23.163 163.82 22.8953 163.771 22.626 163.777C22.3567 163.782 22.0912 163.842 21.8451 163.952Z" fill="white"/>
<path d="M7.23053 129.894C6.8568 130.054 6.53899 130.322 6.31722 130.664C6.09545 131.005 5.97968 131.405 5.98452 131.813C5.98936 132.22 6.11458 132.617 6.34439 132.953C6.5742 133.289 6.89829 133.55 7.27573 133.702C7.65318 133.853 8.06704 133.89 8.46509 133.806C8.86313 133.722 9.22749 133.522 9.51217 133.231C9.79685 132.94 9.98909 132.571 10.0646 132.171C10.1401 131.771 10.0955 131.357 9.93643 130.982C9.83255 130.73 9.67957 130.502 9.48648 130.311C9.2934 130.119 9.06409 129.969 8.81202 129.867C8.55995 129.766 8.2902 129.716 8.01862 129.72C7.74704 129.725 7.4791 129.784 7.23053 129.894Z" fill="white"/>
<path d="M2.37064 118.554C2.12035 118.656 1.89305 118.807 1.70219 118.999C1.51134 119.19 1.36081 119.418 1.25953 119.669C1.15825 119.92 1.10828 120.189 1.11256 120.46C1.11684 120.731 1.1753 120.998 1.28447 121.245C1.39083 121.496 1.54543 121.723 1.73945 121.914C1.93347 122.105 2.16311 122.256 2.41526 122.358C2.66741 122.46 2.93712 122.511 3.20902 122.508C3.48091 122.506 3.74965 122.45 3.99989 122.343C4.25013 122.237 4.47698 122.082 4.66747 121.887C4.85796 121.693 5.00837 121.463 5.11012 121.21C5.21186 120.958 5.26295 120.687 5.26046 120.415C5.25796 120.143 5.20194 119.873 5.09558 119.623C4.9922 119.369 4.8384 119.139 4.64352 118.946C4.44864 118.754 4.21674 118.603 3.9619 118.503C3.70706 118.403 3.43461 118.356 3.16107 118.365C2.88753 118.373 2.61861 118.438 2.37064 118.554Z" fill="white"/>
<path d="M36.4423 198.01C36.1921 198.117 35.9652 198.271 35.7747 198.466C35.5842 198.66 35.4338 198.89 35.3321 199.143C35.2303 199.396 35.1792 199.666 35.1817 199.938C35.1842 200.211 35.2402 200.48 35.3466 200.73C35.453 200.981 35.6076 201.208 35.8016 201.399C35.9956 201.59 36.2252 201.741 36.4774 201.843C36.7295 201.945 36.9993 201.996 37.2711 201.993C37.543 201.991 37.8118 201.935 38.062 201.828C38.5622 201.61 38.9565 201.203 39.1597 200.696C39.3629 200.189 39.3588 199.622 39.1482 199.117C39.0461 198.864 38.8945 198.634 38.7022 198.441C38.5099 198.247 38.2809 198.094 38.0286 197.991C37.7764 197.888 37.506 197.837 37.2336 197.84C36.9611 197.843 36.692 197.901 36.4423 198.01Z" fill="white"/>
<path d="M41.3204 209.35C41.0711 209.456 40.8452 209.61 40.6556 209.804C40.466 209.998 40.3164 210.228 40.2155 210.479C40.1146 210.731 40.0643 211.001 40.0675 211.272C40.0707 211.543 40.1274 211.811 40.2343 212.061C40.4561 212.559 40.8625 212.95 41.3674 213.153C41.8724 213.357 42.4364 213.355 42.9402 213.149C43.4456 212.934 43.8449 212.526 44.0504 212.016C44.2559 211.506 44.2507 210.935 44.0359 210.429C43.8211 209.922 43.4143 209.522 42.9051 209.316C42.3958 209.11 41.8258 209.116 41.3204 209.331V209.35Z" fill="white"/>
<path d="M31.5638 186.651C31.3047 186.751 31.0687 186.903 30.8703 187.098C30.6719 187.292 30.5153 187.525 30.41 187.783C30.3048 188.04 30.2531 188.316 30.2582 188.594C30.2632 188.872 30.3249 189.147 30.4395 189.4C30.661 189.898 31.0685 190.288 31.5745 190.488C32.0804 190.688 32.6445 190.681 33.1454 190.469C33.6508 190.251 34.0491 189.841 34.2528 189.33C34.4565 188.818 34.4489 188.245 34.2316 187.739C34.0142 187.233 33.6051 186.834 33.094 186.63C32.583 186.426 32.012 186.433 31.5066 186.651H31.5638Z" fill="white"/>
<path d="M26.6281 175.311C26.3795 175.415 26.154 175.568 25.9646 175.76C25.7751 175.952 25.6256 176.18 25.5246 176.43C25.4236 176.68 25.3731 176.948 25.3761 177.218C25.3791 177.488 25.4355 177.755 25.542 178.003C25.6483 178.253 25.8029 178.481 25.9969 178.672C26.191 178.862 26.4206 179.013 26.6728 179.115C26.9249 179.217 27.1946 179.268 27.4665 179.266C27.7384 179.263 28.0071 179.207 28.2574 179.101C28.5076 178.994 28.7345 178.839 28.925 178.645C29.1155 178.45 29.2659 178.22 29.3676 177.968C29.4694 177.715 29.5204 177.445 29.518 177.172C29.5155 176.9 29.4594 176.631 29.3531 176.38C29.2475 176.128 29.0925 175.9 28.8973 175.709C28.702 175.518 28.4704 175.368 28.2163 175.268C27.9622 175.168 27.6907 175.121 27.4179 175.128C27.1451 175.136 26.8765 175.198 26.6281 175.311Z" fill="white"/>
<path d="M30.7061 160.134C30.4575 160.237 30.2321 160.39 30.0433 160.583C29.8544 160.775 29.7059 161.003 29.6065 161.254C29.5071 161.505 29.4587 161.773 29.4643 162.043C29.4699 162.313 29.5293 162.579 29.639 162.825C29.7449 163.075 29.8991 163.302 30.0925 163.492C30.286 163.681 30.515 163.831 30.7664 163.932C31.0178 164.033 31.2866 164.084 31.5575 164.081C31.8284 164.077 32.0959 164.021 32.3449 163.914C32.8416 163.692 33.2316 163.283 33.4311 162.776C33.6307 162.27 33.6238 161.705 33.412 161.203C33.3063 160.953 33.152 160.727 32.9581 160.537C32.7643 160.348 32.5347 160.199 32.2828 160.1C32.0309 160 31.7617 159.952 31.491 159.958C31.2203 159.964 30.9535 160.023 30.7061 160.134Z" fill="white"/>
<path d="M35.5844 171.474C35.2085 171.633 34.8885 171.901 34.665 172.243C34.4415 172.586 34.3246 172.987 34.3292 173.396C34.3338 173.804 34.4597 174.203 34.6909 174.54C34.9221 174.877 35.2481 175.138 35.6275 175.288C36.0068 175.439 36.4224 175.474 36.8215 175.388C37.2205 175.301 37.5848 175.098 37.8683 174.804C38.1517 174.509 38.3413 174.137 38.4131 173.735C38.4848 173.332 38.4354 172.917 38.2712 172.543C38.0497 172.05 37.6454 171.663 37.1439 171.463C36.6425 171.264 36.0831 171.267 35.5844 171.474Z" fill="white"/>
<path d="M16.1094 126.056C15.7357 126.217 15.4179 126.485 15.1961 126.827C14.9744 127.168 14.8586 127.568 14.8634 127.975C14.8683 128.383 14.9935 128.78 15.2233 129.116C15.4531 129.452 15.7772 129.713 16.1546 129.864C16.5321 130.016 16.9459 130.052 17.344 129.969C17.742 129.885 18.1064 129.685 18.3911 129.394C18.6758 129.103 18.868 128.734 18.9435 128.334C19.019 127.933 18.9744 127.519 18.8153 127.144C18.5935 126.647 18.1871 126.255 17.6822 126.052C17.1772 125.849 16.6132 125.85 16.1094 126.056Z" fill="white"/>
<path d="M25.8477 148.774C25.474 148.935 25.1562 149.203 24.9344 149.545C24.7126 149.886 24.5969 150.286 24.6017 150.693C24.6065 151.101 24.7318 151.498 24.9616 151.834C25.1914 152.17 25.5155 152.431 25.8929 152.582C26.2704 152.734 26.6842 152.771 27.0823 152.687C27.4803 152.603 27.8447 152.403 28.1294 152.112C28.414 151.821 28.6063 151.452 28.6818 151.052C28.7573 150.651 28.7127 150.238 28.5536 149.863C28.3356 149.361 27.9296 148.966 27.4233 148.763C26.917 148.559 26.351 148.563 25.8477 148.774Z" fill="white"/>
<path d="M50.1817 205.532C49.808 205.693 49.4902 205.961 49.2684 206.302C49.0466 206.644 48.9309 207.044 48.9357 207.451C48.9405 207.859 49.0657 208.255 49.2956 208.592C49.5254 208.928 49.8495 209.188 50.2269 209.34C50.6043 209.492 51.0182 209.528 51.4163 209.444C51.8143 209.361 52.1787 209.161 52.4634 208.87C52.748 208.579 52.9403 208.21 53.0158 207.809C53.0913 207.409 53.0467 206.995 52.8876 206.62C52.6696 206.119 52.2636 205.724 51.7573 205.52C51.251 205.317 50.685 205.321 50.1817 205.532Z" fill="white"/>
<path d="M20.9121 137.435C20.6635 137.539 20.4382 137.691 20.2493 137.884C20.0605 138.076 19.912 138.304 19.8126 138.555C19.7131 138.806 19.6648 139.074 19.6704 139.344C19.6759 139.614 19.7353 139.88 19.845 140.126C19.951 140.376 20.1051 140.603 20.2986 140.793C20.4921 140.983 20.7211 141.132 20.9725 141.233C21.2238 141.335 21.4927 141.385 21.7636 141.382C22.0344 141.378 22.302 141.322 22.5509 141.215C23.0476 140.993 23.4377 140.584 23.6372 140.078C23.8367 139.571 23.8298 139.006 23.618 138.504C23.5123 138.254 23.3581 138.028 23.1642 137.838C22.9703 137.649 22.7407 137.5 22.4888 137.401C22.237 137.301 21.9678 137.253 21.6971 137.259C21.4264 137.265 21.1595 137.324 20.9121 137.435Z" fill="white"/>
<path d="M40.4434 182.814C40.0697 182.974 39.7519 183.242 39.5301 183.584C39.3084 183.926 39.1926 184.325 39.1974 184.733C39.2022 185.14 39.3275 185.537 39.5573 185.873C39.7871 186.209 40.1112 186.47 40.4886 186.622C40.8661 186.773 41.2799 186.81 41.678 186.726C42.076 186.642 42.4404 186.442 42.7251 186.151C43.0097 185.86 43.202 185.491 43.2775 185.091C43.353 184.691 43.3084 184.277 43.1493 183.902C42.9313 183.401 42.5253 183.006 42.019 182.802C41.5127 182.598 40.9467 182.603 40.4434 182.814Z" fill="white"/>
<path d="M45.3225 194.192C45.0738 194.296 44.8483 194.449 44.6589 194.641C44.4695 194.833 44.3199 195.06 44.2189 195.311C44.1179 195.561 44.0675 195.829 44.0704 196.099C44.0734 196.369 44.1298 196.636 44.2363 196.884C44.394 197.26 44.6598 197.582 45 197.807C45.3403 198.032 45.7397 198.151 46.1474 198.148C46.5552 198.146 46.953 198.022 47.2904 197.792C47.6277 197.563 47.8894 197.238 48.0422 196.859C48.1951 196.48 48.2321 196.065 48.1488 195.665C48.0654 195.265 47.8653 194.899 47.5739 194.613C47.2825 194.327 46.9129 194.135 46.5121 194.06C46.1112 193.985 45.6972 194.031 45.3225 194.192Z" fill="white"/>
<path d="M34.7079 144.956C34.2025 145.172 33.8032 145.579 33.5977 146.089C33.3922 146.599 33.3974 147.171 33.6122 147.677C33.827 148.183 34.2338 148.583 34.743 148.789C35.2522 148.995 35.8222 148.99 36.3276 148.775C36.5763 148.67 36.8018 148.518 36.9912 148.326C37.1806 148.134 37.3302 147.906 37.4312 147.656C37.5322 147.405 37.5826 147.137 37.5797 146.867C37.5767 146.597 37.5203 146.331 37.4138 146.083C37.3115 145.83 37.16 145.599 36.9681 145.405C36.7762 145.211 36.5477 145.058 36.296 144.953C36.0442 144.848 35.7742 144.794 35.5016 144.795C35.2289 144.796 34.9592 144.85 34.7079 144.956Z" fill="white"/>
<path d="M29.8488 133.616C29.6002 133.721 29.3747 133.873 29.1853 134.065C28.9958 134.257 28.8463 134.485 28.7453 134.735C28.6443 134.986 28.5938 135.254 28.5968 135.523C28.5998 135.793 28.6562 136.06 28.7627 136.308C28.9807 136.809 29.3867 137.204 29.893 137.408C30.3993 137.612 30.9653 137.607 31.4686 137.396C31.9701 137.174 32.3647 136.764 32.5677 136.253C32.7708 135.743 32.7661 135.173 32.5547 134.666C32.3336 134.169 31.9249 133.779 31.4179 133.582C30.9109 133.386 30.3468 133.398 29.8488 133.616Z" fill="white"/>
<path d="M24.9706 122.257C24.7213 122.363 24.4956 122.518 24.3066 122.712C24.1176 122.906 23.969 123.136 23.8697 123.389C23.7704 123.641 23.7222 123.911 23.728 124.182C23.7338 124.453 23.7935 124.72 23.9035 124.968C24.0655 125.342 24.3346 125.66 24.6769 125.881C25.0191 126.102 25.4191 126.216 25.8261 126.21C26.2332 126.203 26.6291 126.075 26.9638 125.843C27.2984 125.61 27.5568 125.284 27.7062 124.904C27.8555 124.525 27.8892 124.11 27.8029 123.711C27.7166 123.312 27.5142 122.948 27.2214 122.665C26.9286 122.382 26.5584 122.192 26.1577 122.119C25.7571 122.047 25.344 122.095 24.9706 122.257Z" fill="white"/>
<path d="M59.0225 201.714C58.6488 201.875 58.331 202.143 58.1092 202.484C57.8875 202.826 57.7717 203.226 57.7765 203.633C57.7813 204.04 57.9066 204.437 58.1364 204.773C58.3662 205.11 58.6903 205.37 59.0677 205.522C59.4452 205.674 59.859 205.71 60.2571 205.626C60.6551 205.543 61.0195 205.343 61.3042 205.052C61.5889 204.761 61.7811 204.392 61.8566 203.991C61.9321 203.591 61.8875 203.177 61.7284 202.802C61.5104 202.301 61.1044 201.906 60.5981 201.702C60.0918 201.499 59.5258 201.503 59.0225 201.714Z" fill="white"/>
<path d="M49.3047 179.015C48.7993 179.232 48.4009 179.642 48.1972 180.154C47.9935 180.666 48.0012 181.238 48.2185 181.745C48.4358 182.251 48.845 182.65 49.356 182.854C49.867 183.058 50.4381 183.051 50.9434 182.833C51.1937 182.725 51.4203 182.569 51.6103 182.373C51.8003 182.178 51.95 181.947 52.0509 181.693C52.1517 181.44 52.2018 181.169 52.1981 180.896C52.1945 180.623 52.1372 180.354 52.0296 180.103C51.922 179.852 51.7662 179.625 51.571 179.435C51.3758 179.244 51.1451 179.094 50.8921 178.993C50.6391 178.892 50.3686 178.842 50.0963 178.846C49.8239 178.85 49.5549 178.907 49.3047 179.015Z" fill="white"/>
<path d="M39.586 156.315C39.3374 156.419 39.112 156.572 38.9232 156.764C38.7343 156.957 38.5858 157.185 38.4864 157.436C38.387 157.687 38.3386 157.955 38.3442 158.225C38.3498 158.495 38.4091 158.761 38.5189 159.007C38.6229 159.256 38.7751 159.482 38.9668 159.672C39.1585 159.862 39.3859 160.011 39.6357 160.113C39.8856 160.214 40.153 160.264 40.4224 160.261C40.6919 160.258 40.9581 160.202 41.2057 160.095C41.7058 159.877 42.1001 159.47 42.3034 158.963C42.5066 158.456 42.5025 157.889 42.2919 157.384C42.1862 157.135 42.0319 156.908 41.838 156.719C41.6442 156.53 41.4146 156.381 41.1627 156.281C40.9108 156.182 40.6416 156.134 40.3709 156.139C40.1002 156.145 39.8334 156.205 39.586 156.315Z" fill="white"/>
<path d="M54.1826 190.374C53.8091 190.536 53.492 190.805 53.2714 191.148C53.0509 191.491 52.9368 191.892 52.9436 192.3C52.9505 192.708 53.0779 193.104 53.3098 193.44C53.5417 193.775 53.8676 194.034 54.2463 194.183C54.6251 194.333 55.0396 194.367 55.4375 194.28C55.8354 194.194 56.1988 193.991 56.4816 193.698C56.7645 193.404 56.9541 193.033 57.0265 192.632C57.099 192.231 57.0509 191.817 56.8885 191.443C56.6709 190.942 56.2637 190.548 55.7564 190.347C55.249 190.147 54.683 190.156 54.1826 190.374Z" fill="white"/>
<path d="M44.4452 167.655C43.9398 167.87 43.5405 168.278 43.335 168.788C43.1295 169.298 43.1347 169.869 43.3495 170.376C43.5643 170.882 43.9711 171.282 44.4803 171.488C44.9895 171.694 45.5595 171.689 46.0649 171.473C46.3152 171.367 46.542 171.212 46.7325 171.018C46.923 170.823 47.0734 170.593 47.1752 170.341C47.2769 170.088 47.328 169.818 47.3255 169.545C47.323 169.273 47.267 169.004 47.1606 168.753C47.0543 168.502 46.8997 168.275 46.7057 168.084C46.5116 167.893 46.282 167.743 46.0299 167.641C45.7777 167.539 45.508 167.488 45.2361 167.49C44.9642 167.493 44.6955 167.549 44.4452 167.655Z" fill="white"/>
<path d="M48.447 152.497C48.2 152.603 47.9764 152.757 47.789 152.95C47.6016 153.143 47.4541 153.371 47.3549 153.621C47.2558 153.871 47.2069 154.138 47.2112 154.407C47.2155 154.677 47.2728 154.942 47.3799 155.189C47.5391 155.566 47.8065 155.886 48.1481 156.11C48.4896 156.334 48.89 156.451 49.2981 156.447C49.7063 156.442 50.1039 156.316 50.4403 156.084C50.7768 155.853 51.0369 155.526 51.1876 155.146C51.3382 154.766 51.3727 154.349 51.2865 153.95C51.2004 153.55 50.9975 153.185 50.7037 152.901C50.4099 152.617 50.0385 152.427 49.6367 152.355C49.2348 152.283 48.8207 152.333 48.447 152.497Z" fill="white"/>
<path d="M43.588 141.138C43.2142 141.299 42.8964 141.567 42.6746 141.909C42.4529 142.25 42.3371 142.65 42.3419 143.057C42.3468 143.465 42.472 143.862 42.7018 144.198C42.9316 144.534 43.2557 144.794 43.6332 144.946C44.0106 145.098 44.4245 145.134 44.8225 145.051C45.2205 144.967 45.5849 144.767 45.8696 144.476C46.1543 144.185 46.3465 143.816 46.422 143.416C46.4975 143.015 46.4529 142.601 46.2938 142.226C46.1879 141.977 46.0338 141.75 45.8403 141.56C45.6468 141.37 45.4178 141.22 45.1664 141.119C44.915 141.018 44.6462 140.968 44.3753 140.971C44.1044 140.974 43.8369 141.031 43.588 141.138Z" fill="white"/>
<path d="M38.7099 129.779C38.4597 129.887 38.2331 130.043 38.0431 130.239C37.8531 130.434 37.7034 130.665 37.6025 130.919C37.3988 131.431 37.4065 132.003 37.6238 132.509C37.8411 133.015 38.2503 133.415 38.7613 133.619C39.2723 133.823 39.8433 133.815 40.3487 133.597C40.8541 133.38 41.2525 132.97 41.4562 132.458C41.6599 131.946 41.6522 131.374 41.4349 130.867C41.2176 130.361 40.8084 129.962 40.2974 129.758C39.7863 129.554 39.2153 129.561 38.7099 129.779Z" fill="white"/>
<path d="M53.3061 163.837C52.9302 163.997 52.6102 164.265 52.3867 164.607C52.1632 164.949 52.0463 165.35 52.0509 165.759C52.0555 166.168 52.1814 166.566 52.4126 166.904C52.6438 167.241 52.9698 167.501 53.3491 167.652C53.7285 167.803 54.1441 167.838 54.5431 167.751C54.9422 167.665 55.3065 167.462 55.5899 167.167C55.8733 166.873 56.063 166.501 56.1347 166.098C56.2065 165.696 56.1571 165.281 55.9929 164.906C55.7753 164.41 55.3713 164.02 54.8684 163.82C54.3656 163.62 53.8043 163.626 53.3061 163.837Z" fill="white"/>
<path d="M63.0626 186.536C62.6888 186.697 62.371 186.965 62.1493 187.307C61.9275 187.648 61.8117 188.048 61.8166 188.455C61.8214 188.863 61.9466 189.26 62.1764 189.596C62.4062 189.932 62.7303 190.193 63.1078 190.344C63.4852 190.496 63.8991 190.532 64.2971 190.449C64.6952 190.365 65.0595 190.165 65.3442 189.874C65.6289 189.583 65.8211 189.214 65.8966 188.814C65.9721 188.413 65.9275 188 65.7685 187.624C65.5505 187.123 65.1445 186.728 64.6381 186.525C64.1318 186.321 63.5659 186.325 63.0626 186.536Z" fill="white"/>
<path d="M58.1847 175.177C57.9317 175.287 57.703 175.446 57.512 175.645C57.3209 175.844 57.1714 176.079 57.0721 176.337C56.9728 176.595 56.9256 176.87 56.9335 177.146C56.9413 177.422 57.0039 177.694 57.1176 177.945C57.2823 178.317 57.5531 178.632 57.896 178.85C58.2388 179.068 58.6384 179.179 59.0444 179.17C59.4503 179.161 59.8446 179.032 60.1774 178.799C60.5103 178.566 60.7669 178.24 60.915 177.861C61.0631 177.482 61.096 177.068 61.0096 176.67C60.9232 176.273 60.7213 175.91 60.4294 175.627C60.1375 175.344 59.7687 175.154 59.3692 175.081C58.9698 175.008 58.5577 175.054 58.1847 175.215V175.177Z" fill="white"/>
<path d="M57.3272 148.679C57.0786 148.783 56.8532 148.936 56.6644 149.128C56.4755 149.32 56.327 149.549 56.2276 149.8C56.1282 150.05 56.0798 150.319 56.0854 150.589C56.091 150.858 56.1504 151.124 56.2601 151.371C56.3641 151.62 56.5163 151.846 56.708 152.036C56.8997 152.225 57.1271 152.375 57.3769 152.476C57.6268 152.578 57.8942 152.628 58.1637 152.625C58.4331 152.622 58.6994 152.566 58.9469 152.459C59.4471 152.241 59.8413 151.834 60.0446 151.327C60.2478 150.819 60.2437 150.252 60.0331 149.748C59.9274 149.498 59.7731 149.272 59.5792 149.083C59.3854 148.893 59.1558 148.745 58.9039 148.645C58.652 148.546 58.3828 148.497 58.1121 148.503C57.8414 148.509 57.5746 148.569 57.3272 148.679Z" fill="white"/>
<path d="M54.0874 141.1C54.3367 140.994 54.5624 140.84 54.7515 140.645C54.9405 140.451 55.089 140.221 55.1883 139.969C55.2877 139.716 55.3358 139.447 55.33 139.175C55.3242 138.904 55.2646 138.637 55.1545 138.389C55.0508 138.14 54.8984 137.914 54.7063 137.725C54.5142 137.536 54.2863 137.387 54.0359 137.287C53.7855 137.188 53.5178 137.139 53.2485 137.145C52.9792 137.151 52.7137 137.21 52.4677 137.32C51.9623 137.535 51.5629 137.943 51.3575 138.453C51.152 138.963 51.1572 139.534 51.372 140.04C51.5868 140.547 51.9935 140.947 52.5028 141.153C53.012 141.359 53.582 141.353 54.0874 141.138V141.1Z" fill="white"/>
<path d="M67.0644 171.359C66.8151 171.465 66.5894 171.619 66.4003 171.814C66.2113 172.008 66.0628 172.238 65.9635 172.49C65.8641 172.743 65.816 173.012 65.8218 173.284C65.8276 173.555 65.8872 173.822 65.9973 174.07C66.101 174.319 66.2534 174.545 66.4455 174.734C66.6376 174.923 66.8655 175.072 67.1159 175.172C67.3662 175.271 67.634 175.32 67.9033 175.314C68.1726 175.308 68.4381 175.249 68.6841 175.139C68.9327 175.035 69.1583 174.882 69.3477 174.69C69.5371 174.498 69.6866 174.27 69.7877 174.02C69.8887 173.77 69.9391 173.502 69.9361 173.232C69.9332 172.962 69.8768 172.695 69.7703 172.447C69.5523 171.946 69.1463 171.551 68.64 171.348C68.1336 171.144 67.5677 171.148 67.0644 171.359Z" fill="white"/>
<path d="M62.2055 160.019C61.8296 160.179 61.5096 160.447 61.2861 160.789C61.0626 161.131 60.9457 161.532 60.9503 161.941C60.9549 162.35 61.0808 162.748 61.312 163.085C61.5432 163.422 61.8692 163.683 62.2485 163.834C62.6279 163.985 63.0435 164.019 63.4425 163.933C63.8415 163.847 64.2059 163.643 64.4893 163.349C64.7727 163.055 64.9624 162.683 65.0341 162.28C65.1059 161.877 65.0565 161.463 64.8923 161.088C64.7865 160.841 64.633 160.617 64.4405 160.429C64.248 160.241 64.0204 160.093 63.7707 159.994C63.521 159.895 63.2542 159.846 62.9856 159.85C62.717 159.854 62.4519 159.912 62.2055 160.019Z" fill="white"/>
<path opacity="0.3" d="M280.82 250.091C280.128 250.091 279.464 249.814 278.975 249.322C278.486 248.83 278.211 248.162 278.211 247.465C278.211 240.976 283.823 237.855 288.352 235.329C292.881 232.802 295.786 230.92 295.786 227.799C295.786 224.678 292.979 222.845 288.352 220.319C283.725 217.792 278.211 214.671 278.211 208.182C278.211 201.692 283.823 198.571 288.352 196.045C292.881 193.518 295.786 191.636 295.786 188.515C295.786 185.394 292.979 183.561 288.352 181.035C283.725 178.508 278.211 175.338 278.211 168.898C278.211 162.458 283.823 159.287 288.352 156.761C292.881 154.235 295.786 152.352 295.786 149.231C295.786 146.11 292.979 144.277 288.352 141.751C283.725 139.224 278.211 136.054 278.211 129.565C278.211 123.075 283.823 119.954 288.352 117.428C292.881 114.901 295.786 113.068 295.786 109.947C295.734 109.569 295.764 109.184 295.872 108.818C295.981 108.452 296.166 108.114 296.416 107.826C296.665 107.538 296.973 107.307 297.319 107.149C297.664 106.991 298.04 106.909 298.419 106.909C298.799 106.909 299.174 106.991 299.52 107.149C299.865 107.307 300.173 107.538 300.423 107.826C300.672 108.114 300.857 108.452 300.966 108.818C301.075 109.184 301.105 109.569 301.053 109.947C301.053 116.387 295.441 119.558 290.912 122.084C286.383 124.611 283.478 126.444 283.478 129.565C283.478 132.685 286.284 134.518 290.912 137.094C295.539 139.67 301.053 142.791 301.053 149.231C301.053 155.671 295.441 158.842 290.912 161.368C286.383 163.895 283.478 165.777 283.478 168.898C283.478 172.019 286.284 173.852 290.912 176.378C295.539 178.905 301.053 182.075 301.053 188.515C301.053 194.955 295.441 198.125 290.912 200.652C286.383 203.178 283.478 205.061 283.478 208.182C283.478 211.303 286.284 213.136 290.912 215.662C295.539 218.188 301.053 221.359 301.053 227.799C301.053 234.239 295.441 237.409 290.912 239.936C286.383 242.462 283.478 244.345 283.478 247.465C283.465 248.166 283.18 248.834 282.683 249.325C282.185 249.816 281.517 250.091 280.82 250.091Z" fill="#F3ED5C"/>
</g>
<defs>
<linearGradient id="paint0_linear_6210_5605" x1="0" y1="0" x2="127.711" y2="348.583" gradientUnits="userSpaceOnUse">
<stop stop-color="#00D5C7"/>
<stop offset="1" stop-color="#FFEE57"/>
</linearGradient>
<linearGradient id="paint1_linear_6210_5605" x1="173.82" y1="-35.0238" x2="203.082" y2="34.4946" gradientUnits="userSpaceOnUse">
<stop stop-color="#EBFF00"/>
<stop offset="1" stop-color="#00F3E5" stop-opacity="0"/>
</linearGradient>
<linearGradient id="paint2_linear_6210_5605" x1="31.9211" y1="106.18" x2="57.2234" y2="166.29" gradientUnits="userSpaceOnUse">
<stop stop-color="#00F9AE"/>
<stop offset="1" stop-color="#9EFF00" stop-opacity="0"/>
</linearGradient>
<clipPath id="clip0_6210_5605">
<rect width="343" height="210" rx="12" fill="white"/>
</clipPath>
</defs>
</svg>
